HIERARCHY
ROOT root
{
	OFFSET 0.000000 0.000000 0.000000
	CHANNELS 6 Xposition Yposition Zposition Zrotation Yrotation Xrotation
	JOINT lhip
	{
		OFFSET 0.058581 -0.082280 -0.017664
		CHANNELS 3 Zrotation Yrotation Xrotation
		JOINT lknee
		{
			OFFSET 0.043451 -0.386469 0.008037
			CHANNELS 3 Zrotation Yrotation Xrotation
			JOINT lankle
			{
				OFFSET -0.014790 -0.426874 -0.037428
				CHANNELS 3 Zrotation Yrotation Xrotation
				JOINT ltoe
				{
					OFFSET 0.041054 -0.060286 0.122042
					CHANNELS 3 Zrotation Yrotation Xrotation
					End Site
					{
						OFFSET 0.000000 0.000000 0.000000
					}
				}
			}
		}
	}
	JOINT rhip
	{
		OFFSET -0.060310 -0.090513 -0.013543
		CHANNELS 3 Zrotation Yrotation Xrotation
		JOINT rknee
		{
			OFFSET -0.043257 -0.383688 -0.004843
			CHANNELS 3 Zrotation Yrotation Xrotation
			JOINT rankle
			{
				OFFSET 0.019056 -0.420046 -0.034562
				CHANNELS 3 Zrotation Yrotation Xrotation
				JOINT rtoe
				{
					OFFSET -0.034840 -0.062106 0.130323
					CHANNELS 3 Zrotation Yrotation Xrotation
					End Site
					{
						OFFSET 0.000000 0.000000 0.000000
					}
				}
			}
		}
	}
	JOINT lowerback
	{
		OFFSET 0.004439 0.124404 -0.038385
		CHANNELS 3 Zrotation Yrotation Xrotation
		JOINT upperback
		{
			OFFSET 0.004488 0.137956 0.026820
			CHANNELS 3 Zrotation Yrotation Xrotation
			JOINT chest
			{
				OFFSET -0.002265 0.056032 0.002855
				CHANNELS 3 Zrotation Yrotation Xrotation
				JOINT lowerneck
				{
					OFFSET -0.013390 0.211636 -0.033468
					CHANNELS 3 Zrotation Yrotation Xrotation
					JOINT upperneck
					{
						OFFSET 0.010113 0.088937 0.050410
						CHANNELS 3 Zrotation Yrotation Xrotation
						End Site
						{
							OFFSET 0.000000 0.000000 0.000000
						}
					}
				}
				JOINT lclavicle
				{
					OFFSET 0.071702 0.114000 -0.018898
					CHANNELS 3 Zrotation Yrotation Xrotation
					JOINT lshoulder
					{
						OFFSET 0.122921 0.045205 -0.019046
						CHANNELS 3 Zrotation Yrotation Xrotation
						JOINT lelbow
						{
							OFFSET 0.255332 -0.015649 -0.022946
							CHANNELS 3 Zrotation Yrotation Xrotation
							JOINT lwrist
							{
								OFFSET 0.265709 0.012698 -0.007375
								CHANNELS 3 Zrotation Yrotation Xrotation
								End Site
								{
									OFFSET 0.000000 0.000000 0.000000
								}
							}
						}
					}
				}
				JOINT rclavicle
				{
					OFFSET -0.082954 0.112472 -0.023707
					CHANNELS 3 Zrotation Yrotation Xrotation
					JOINT rshoulder
					{
						OFFSET -0.113228 0.046853 -0.008472
						CHANNELS 3 Zrotation Yrotation Xrotation
						JOINT relbow
						{
							OFFSET -0.260127 -0.014369 -0.031269
							CHANNELS 3 Zrotation Yrotation Xrotation
							JOINT rwrist
							{
								OFFSET -0.269108 0.006794 -0.006027
								CHANNELS 3 Zrotation Yrotation Xrotation
								End Site
								{
									OFFSET 0.000000 0.000000 0.000000
								}
							}
						}
					}
				}
			}
		}
	}
}
MOTION
Frames: 11
Frame Time: 0.033333
0.177341 0.360901 0.999292 -83.009281 3.078571 87.752264 3.458896 -2.265012 11.016796 -11.685594 -16.940648 39.693930 -5.920467 4.891568 8.059898 0.000000 -0.000000 0.000000 2.953766 3.417709 -18.674188 2.204447 -7.575543 13.458712 -3.111196 -6.005746 1.762697 0.000000 -0.000000 0.000000 2.770760 -6.209541 9.995837 3.589633 -2.413885 -0.433939 0.848516 -3.258521 -1.173745 0.339784 2.603399 -7.242259 2.373534 0.042393 5.139817 -24.294047 -4.403962 -0.285888 -51.187101 -24.645546 10.101223 29.050347 -38.293123 -20.102417 15.529063 -15.240095 -25.521084 28.058401 3.016431 3.443663 56.582643 1.212398 14.956496 -10.257114 12.797495 -2.339953 -2.264222 7.055066 -16.368979 
0.142081 0.367219 1.003753 -84.160524 2.570427 87.359405 2.986222 -3.134005 6.237093 -11.955551 -12.593947 46.188704 -2.837892 6.329285 1.763445 0.000000 -0.000000 0.000000 4.252204 3.615115 -16.291138 1.257942 -5.555977 14.305426 -4.197369 -6.923237 -0.798864 0.000000 -0.000000 0.000000 1.806187 -4.544940 9.543891 3.659682 -2.229783 0.154775 0.740203 -2.680606 -0.699280 1.417113 2.001254 -7.072182 1.799528 -0.623294 5.703603 -24.808296 -3.419028 0.289895 -52.658921 -20.329897 10.933738 26.709323 -38.216441 -16.067165 13.924613 -14.216916 -25.880879 28.454070 4.467677 2.952574 56.472810 4.142614 15.663170 -10.456351 13.475477 -3.059310 -3.285579 6.686241 -17.108702 
0.107879 0.371334 1.009033 -85.124403 1.800081 86.628102 2.779109 -3.030622 1.996953 -11.431955 -9.685494 47.647133 -0.583578 6.759376 -5.205288 0.000000 -0.000000 0.000000 4.429318 3.207181 -12.715579 1.128392 -4.257246 13.511496 -3.624583 -6.662191 -2.931957 0.000000 -0.000000 0.000000 1.319026 -3.102992 10.413635 3.113581 -1.709531 -0.703971 0.211231 -2.024545 -0.162372 2.599935 1.671304 -6.972336 1.072289 -1.673872 6.456066 -25.820627 -1.488514 0.087067 -53.148933 -16.682741 11.219563 23.103936 -37.428942 -10.115162 11.256516 -14.889815 -23.651220 28.867677 4.615389 1.892954 56.427504 7.063198 15.987951 -10.742725 15.382955 -4.390647 -4.991818 6.967485 -18.186253 
0.075002 0.374338 1.012979 -86.313601 1.105048 86.100649 2.663692 -3.008754 -2.303090 -11.421259 -8.261129 45.589872 -0.016944 6.604896 -11.206704 0.000000 -0.000000 0.000000 4.332436 2.297522 -10.006452 1.216443 -3.252966 13.639746 -2.951161 -5.572347 -5.043658 0.000000 -0.000000 0.000000 0.999737 -1.491808 10.663339 2.557573 -1.203559 -0.751930 -0.139123 -1.236024 0.227440 3.315564 1.479437 -7.094803 0.374066 -2.686999 6.246998 -26.120830 0.333470 -0.249304 -54.755528 -12.253023 11.446033 21.782220 -37.079370 -6.693294 10.041223 -13.917615 -22.088165 28.391078 4.970496 0.862572 56.753279 10.528632 15.704421 -11.388655 17.863250 -5.866601 -4.957046 6.742737 -19.982959 
0.043648 0.377118 1.015714 -87.670623 0.431522 85.522183 2.690012 -3.828774 -6.137231 -11.079969 -6.619604 40.528873 0.297743 6.573902 -15.698765 0.000000 -0.000000 0.000000 3.998628 1.085479 -7.318530 1.588962 -1.883781 13.646066 -2.568062 -4.741977 -6.638205 0.000000 -0.000000 0.000000 0.955340 0.208741 11.172546 1.810939 -0.737051 -1.109122 -0.436773 -0.446171 0.602343 3.866897 1.207667 -7.385987 -0.256131 -3.708017 6.565756 -26.658146 2.181960 -0.071067 -55.555515 -8.301341 11.003480 20.654641 -36.016176 -5.643640 11.980539 -14.721080 -21.767099 27.594978 5.750464 0.237387 56.585055 14.147562 15.466210 -11.727457 20.386295 -6.856848 -6.154303 6.510384 -20.418941 
0.013428 0.379154 1.016172 -89.505547 -0.324231 84.587302 2.590832 -4.941002 -9.105043 -10.247188 -5.571994 33.835740 0.355034 6.885176 -18.235716 0.000000 -0.000000 0.000000 3.842234 1.121080 -4.165835 1.229261 -0.165753 13.527524 -2.451003 -4.512416 -8.784428 0.000000 -0.000000 0.000000 0.827737 1.909044 11.816930 1.056499 0.253303 -0.953443 -0.715595 0.643268 0.963540 4.600488 0.887260 -7.715566 -0.967715 -5.224042 6.981734 -26.449279 4.033853 -0.560939 -56.884338 -4.798750 10.645506 20.413158 -34.089567 -4.831282 10.463944 -14.422670 -22.226930 26.309505 6.711183 -0.576757 56.293457 18.173364 15.364140 -13.074693 22.104305 -9.032757 -6.944968 6.759997 -21.364419 
-0.016628 0.379694 1.016182 -91.050731 -0.971683 83.828075 2.488335 -5.791993 -11.979683 -8.678756 -5.410344 26.928359 0.288129 7.929663 -19.262582 0.000000 -0.000000 0.000000 3.520797 0.992799 -1.475514 1.096462 1.550438 13.844031 -2.177199 -4.730955 -10.679314 0.000000 -0.000000 0.000000 1.031626 3.177876 12.418265 0.241215 1.227817 -1.185058 -1.077825 1.691592 1.462881 5.285362 0.490053 -7.753657 -1.565614 -6.533656 7.011229 -26.300613 6.350317 -1.383032 -57.353320 -1.297536 10.117838 20.420048 -32.811732 -3.817296 9.677682 -13.994445 -22.382164 24.971384 7.269116 -1.751297 55.377194 22.428662 15.086856 -13.834517 23.674238 -10.287410 -8.957689 5.694180 -21.511314 
-0.045118 0.379739 1.015288 -91.936528 -1.166970 83.617496 2.422284 -5.382802 -15.895524 -6.634149 -6.013332 21.242753 -0.130332 8.113842 -19.473970 0.000000 -0.000000 0.000000 3.314347 0.198091 0.777147 0.972786 2.483249 13.744336 -2.165380 -4.041719 -12.618138 0.000000 -0.000000 0.000000 1.539023 4.230523 12.406749 -0.348797 1.915925 -1.546979 -1.211096 2.456422 2.143005 5.684788 0.132415 -7.861408 -2.279450 -7.588360 7.703497 -25.500496 8.428673 -1.456441 -58.323120 1.530647 9.379169 20.315850 -31.233362 -2.517444 10.645143 -13.339405 -21.957047 23.494472 7.739565 -2.957531 53.847335 27.130693 13.585227 -14.478126 24.680372 -12.555723 -11.818875 6.403394 -21.541699 
-0.074235 0.379489 1.014449 -92.782894 -1.635292 83.357066 2.498908 -5.769276 -19.239105 -5.433926 -6.118761 15.947526 0.208186 8.177973 -19.519826 0.000000 -0.000000 0.000000 2.649944 -0.504081 2.888636 0.915088 3.148365 14.053598 -1.617470 -3.707095 -13.809732 0.000000 -0.000000 0.000000 1.390611 5.412350 12.871594 -0.753343 2.427739 -2.167532 -1.089486 3.186361 2.393023 6.194797 -0.269288 -7.561882 -2.742397 -8.165107 7.873783 -24.523329 10.515405 -1.577753 -58.760958 5.001069 8.616457 20.211672 -30.590202 -1.929483 11.054209 -12.811402 -21.989444 21.583534 8.092596 -4.230332 52.312501 30.989651 12.297243 -15.461105 25.630348 -14.485496 -13.177732 6.068090 -22.119133 
-0.103222 0.379548 1.012861 -93.573098 -1.991212 82.888813 2.977053 -6.665322 -22.059695 -4.317967 -5.898034 11.496082 -0.616416 7.689805 -18.574316 0.000000 -0.000000 0.000000 2.271157 -0.868975 5.553236 0.732623 4.148476 13.392316 -1.379367 -3.949567 -14.730173 0.000000 -0.000000 0.000000 1.152324 6.484271 13.174629 -1.005325 2.541977 -2.050339 -0.841434 3.843543 2.606939 6.406651 -0.439147 -7.564033 -2.787031 -8.855372 7.999923 -22.685016 12.275729 -1.227954 -59.986904 8.001255 7.432990 20.800727 -30.004111 -1.897954 10.554469 -12.423523 -22.517590 19.106580 9.198591 -5.255498 50.104071 34.880869 10.439180 -16.601119 26.451291 -16.132097 -13.585153 5.841225 -22.512393 
-0.131402 0.379641 1.011770 -94.171580 -2.055220 82.798070 3.675904 -7.070430 -25.250769 -3.433545 -4.075649 8.564615 -0.915225 7.507407 -17.211277 0.000000 -0.000000 0.000000 2.050034 -1.413605 7.722927 0.648371 5.082556 12.848797 -1.439926 -4.095689 -15.676687 0.000000 -0.000000 0.000000 1.044280 7.439082 13.428485 -1.162342 2.665357 -2.169229 -0.619408 4.287189 3.031917 6.964172 -0.701044 -8.242861 -3.099738 -9.382842 7.646968 -21.384017 14.079013 -1.380266 -60.093958 10.738204 6.276914 21.073127 -29.510935 -1.555977 9.246283 -12.275546 -23.082782 17.098438 9.423526 -6.659701 47.364076 38.770771 8.543896 -17.415460 27.372894 -17.653581 -13.462856 6.365049 -22.838414 
